<svg width="30" height="30" viewBox="0 0 30 30" fill="none" xmlns="http://www.w3.org/2000/svg">
<path d="M9.315 15L7.32 16.335V13.665L9.315 15ZM14.205 11.73V8.01L7.965 12.18L10.74 14.04L14.205 11.73ZM22.05 12.18L15.795 8.01V11.73L19.26 14.04L22.05 12.18ZM7.965 17.82L14.205 21.99V18.27L10.74 15.96L7.965 17.82ZM15.795 18.27V21.99L22.05 17.82L19.26 15.96L15.795 18.27ZM15 13.11L12.18 15L15 16.89L17.82 15L15 13.11ZM30 15C30 23.25 23.25 30 15 30C6.75 30 0 23.25 0 15C0 6.75 6.75 0 15 0C23.25 0 30 6.75 30 15ZM24.27 12.18V12.075L24.255 12L24.24 11.925C24.225 11.91 24.225 11.895 24.21 11.865L24.195 11.835L24.165 11.775L24.15 11.745L24.12 11.7L24.09 11.655L24.045 11.61L24 11.58V11.55L23.94 11.52L23.925 11.505L15.45 5.865C15.3192 5.77691 15.1652 5.72985 15.0075 5.72985C14.8498 5.72985 14.6958 5.77691 14.565 5.865L6.075 11.505V11.52L6 11.55V11.58L5.955 11.61L5.91 11.655L5.895 11.7L5.85 11.745L5.835 11.775L5.805 11.835L5.79 11.865L5.76 11.925V12H5.745L5.73 12.075V17.925L5.745 18H5.76V18.075C5.775 18.09 5.775 18.105 5.79 18.135L5.805 18.165L5.835 18.225L5.85 18.255L5.88 18.3L5.91 18.345L5.955 18.39L6 18.42V18.45L6.06 18.48L6.075 18.495L14.565 24.15C14.685 24.24 14.85 24.27 15 24.27C15.15 24.27 15.315 24.225 15.45 24.15L23.925 18.495L23.94 18.48L24 18.45V18.42L24.045 18.39L24.09 18.345L24.12 18.3L24.15 18.255L24.165 18.225L24.195 18.165L24.21 18.135L24.24 18.075V18H24.255L24.27 17.925V12.18ZM22.68 16.335V13.665L20.685 15L22.68 16.335Z" fill="#D9D9D9"/>
</svg>
